<svg aria-hidden="true" style="position: absolute; width: 0; height: 0; overflow: hidden;" version="1.1" xmlns="http://www.w3.org/2000/svg" xmlns:xlink="http://www.w3.org/1999/xlink">
<defs>
<symbol id="icon-logo" viewBox="0 0 32 32">
<path d="M28.296 16.466c-0.325-0.011-0.648-0.022-0.973-0.011-1.508 0.063-3.216 0.331-4.289 1.505-0.512 0.561-0.789 1.255-0.75 2.017 0.026 0.431 0.14 0.853 0.335 1.238-0.002 0.003-0.004 0.006-0.005 0.010-0.001 0.002-0.002 0.003-0.003 0.005-0.058 0.098-0.179 0.235-0.302 0.372-0.155 0.174-0.312 0.35-0.343 0.453-0.008 0.026-0.002 0.058 0.005 0.083 0.025 0.086 0.114 0.153 0.183 0.205l0.005 0.004c0.152-0.149 0.29-0.311 0.427-0.473l0.011-0.013 0.279-0.34c0.741 0.42 1.468 0.552 2.298 0.322 1.017-0.282 1.803-1.006 2.31-1.915 0.564-1.012 0.824-2.312 0.862-3.461l-0.051-0.002zM26.823 17.48c0.004 0.001 0.008 0.002 0.012 0.003 0.036 0.009 0.069 0.017 0.099 0.042 0.033 0.026 0.058 0.067 0.056 0.11-0.003 0.051-0.021 0.076-0.056 0.112-0.109 0.11-0.24 0.207-0.37 0.302-0.057 0.042-0.114 0.084-0.168 0.126-0.342 0.265-0.678 0.535-1.010 0.812 0.209-0.051 0.912-0.171 1.094-0.109 0.056 0.020 0.075 0.047 0.098 0.1-0.005 0.078-0.029 0.125-0.103 0.158-0.034 0.015-0.286 0.039-0.568 0.067-0.322 0.031-0.683 0.066-0.807 0.096-0.079 0.019-0.141 0.045-0.207 0.091-0.1 0.070-0.19 0.157-0.279 0.244-0.033 0.032-0.066 0.064-0.099 0.095-0.293 0.272-0.58 0.546-0.861 0.83 0.199 0.044 0.493 0.030 0.776 0.016 0.32-0.015 0.628-0.030 0.776 0.039 0.024 0.031 0.031 0.064 0.028 0.104-0.003 0.032-0.021 0.052-0.044 0.073-0.123 0.112-1.333 0.076-1.521 0.055-0.008-0.001-0.015-0.003-0.023-0.004-0.042-0.007-0.088-0.015-0.128-0.007-0.304 0.063-0.72 0.533-0.901 0.769l0.011-0.026c0.084-0.197 0.169-0.395 0.287-0.575 0.199-0.305 0.763-0.87 1.039-1.137 0.044-0.042 0.095-0.085 0.148-0.13 0.117-0.098 0.241-0.203 0.31-0.319s0.111-0.361 0.154-0.618c0.054-0.323 0.112-0.664 0.233-0.796 0.035-0.038 0.046-0.041 0.094-0.046 0.048 0.021 0.078 0.041 0.105 0.087 0.020 0.034 0.022 0.067 0.017 0.105-0.012 0.091-0.044 0.186-0.076 0.28-0.017 0.051-0.034 0.101-0.047 0.149-0.045 0.164-0.080 0.331-0.114 0.498-0.004 0.019-0.008 0.038-0.012 0.057 0.16-0.154 0.339-0.29 0.517-0.426 0.058-0.044 0.115-0.088 0.172-0.132 0.086-0.067 0.172-0.134 0.258-0.201 0.375-0.291 0.752-0.584 1.108-0.895z"></path>
<path d="M4.692 9.258c-0.006 0.001-0.012 0.002-0.017 0.003-0.644 0.077-1.226 0.371-1.632 0.885-0.497 0.628-0.633 1.431-0.538 2.213 0.082 0.677 0.392 1.317 0.938 1.738s1.181 0.539 1.856 0.487c0.656-0.090 1.248-0.387 1.655-0.919 0.473-0.618 0.603-1.433 0.5-2.191-0.094-0.688-0.436-1.328-0.995-1.748-0.507-0.38-1.138-0.534-1.766-0.468zM4.903 10.135c0.352-0.004 0.671 0.062 0.949 0.291 0.339 0.281 0.493 0.723 0.532 1.15 0.050 0.549-0.010 1.198-0.379 1.637-0.254 0.302-0.58 0.423-0.964 0.457-0.007 0.001-0.014 0.002-0.021 0.002-0.326 0.017-0.665-0.080-0.917-0.289-0.346-0.288-0.492-0.726-0.529-1.162-0.046-0.547-0.003-1.213 0.37-1.65 0.253-0.296 0.581-0.408 0.96-0.435z"></path>
<path d="M12.526 10.636c-0.002 0-0.004 0.001-0.007 0.001-0.44 0.042-0.815 0.217-1.102 0.56-0.358 0.429-0.48 1.031-0.427 1.577 0.045 0.46 0.234 0.914 0.6 1.21 0.369 0.298 0.843 0.368 1.304 0.312 0.363-0.044 0.603-0.206 0.854-0.462 0 0.025 0.001 0.050 0.001 0.076 0.007 0.347 0.015 0.767-0.243 1.024-0.173 0.173-0.421 0.21-0.655 0.205-0.253-0.005-0.508-0.064-0.688-0.256-0.051-0.054-0.084-0.122-0.117-0.189-0.006-0.012-0.012-0.023-0.017-0.035-0.092-0-0.187-0.003-0.284-0.007-0.234-0.008-0.477-0.016-0.696 0.017-0.019 0.050-0.005 0.105 0.008 0.156 0.003 0.010 0.005 0.020 0.008 0.030 0.131 0.391 0.409 0.693 0.776 0.879 0.521 0.264 1.263 0.288 1.813 0.103 0.405-0.135 0.754-0.409 0.944-0.796 0.073-0.151 0.12-0.314 0.139-0.481 0.038-0.306 0.035-0.628 0.031-0.944-0.001-0.115-0.002-0.229-0.001-0.341l0.006-2.556c-0.101 0-0.201 0.001-0.302 0.001-0.235 0.001-0.471 0.002-0.706-0.001l-0.001 0.335c-0.37-0.305-0.741-0.458-1.228-0.421-0.004 0-0.008 0.001-0.013 0.001zM12.793 11.452c0.196-0.017 0.401 0.018 0.57 0.122 0.193 0.119 0.313 0.311 0.365 0.529 0.076 0.313 0.070 0.741-0.105 1.019-0.139 0.221-0.34 0.304-0.585 0.356-0.216 0.024-0.44-0.004-0.623-0.13-0.216-0.148-0.334-0.392-0.377-0.644-0.053-0.306-0.017-0.664 0.171-0.92 0.145-0.199 0.347-0.295 0.584-0.331z"></path>
<path d="M19.355 17.98c-0.321-0.265-0.722-0.364-1.133-0.354-0.48 0.037-0.77 0.181-1.087 0.54l-0.002-0.456-1.022 0 0 5.181 1.039-0.001-0.002-0.764 0.002-0.967c0.376 0.313 0.779 0.473 1.274 0.43 0.436-0.038 0.817-0.236 1.099-0.572 0.394-0.469 0.51-1.122 0.452-1.718-0.048-0.493-0.232-0.996-0.623-1.319zM17.944 18.479c0.207-0.022 0.429 0.026 0.598 0.148 0.233 0.167 0.344 0.441 0.382 0.717 0.049 0.359 0.014 0.779-0.219 1.072-0.159 0.201-0.351 0.284-0.598 0.318-0.215 0.021-0.45-0.028-0.627-0.156-0.201-0.146-0.307-0.368-0.346-0.608-0.058-0.363-0.048-0.857 0.182-1.163 0.159-0.211 0.372-0.298 0.626-0.329z"></path>
<path d="M15.527 19.45c-0.085-1.101-1.046-1.926-2.147-1.843-1.104 0.083-1.931 1.047-1.846 2.151s1.050 1.929 2.154 1.842c1.101-0.087 1.924-1.049 1.839-2.15zM13.442 18.441c0.191-0.022 0.404 0.026 0.568 0.125 0.225 0.135 0.362 0.364 0.421 0.615 0.086 0.364 0.070 0.837-0.136 1.16-0.149 0.234-0.354 0.345-0.618 0.4-0.24 0.010-0.454-0.009-0.658-0.151-0.228-0.158-0.351-0.417-0.397-0.685-0.062-0.36-0.033-0.8 0.189-1.104 0.158-0.216 0.372-0.319 0.63-0.359z"></path>
<path d="M4.246 16.324c0.077-0.011 0.161-0.009 0.239-0.012 0.569-0.018 1.179 0.080 1.606 0.487 0.313 0.298 0.405 0.655 0.413 1.074l-1.030 0.004c-0.012-0.206-0.043-0.371-0.204-0.518-0.215-0.196-0.537-0.243-0.818-0.229-0.221 0.011-0.451 0.072-0.6 0.246-0.109 0.127-0.144 0.291-0.126 0.455 0.018 0.157 0.097 0.283 0.228 0.372 0.204 0.139 0.465 0.191 0.702 0.244 0.521 0.117 1.172 0.209 1.59 0.566 0.256 0.219 0.376 0.508 0.4 0.84 0.030 0.405-0.079 0.785-0.349 1.092-0.376 0.427-0.937 0.6-1.489 0.636-0.609 0.042-1.282-0.079-1.758-0.485-0.349-0.298-0.497-0.679-0.533-1.128l1.049-0.002c0.048 0.223 0.129 0.408 0.313 0.552 0.253 0.198 0.608 0.237 0.918 0.202 0.242-0.027 0.497-0.122 0.648-0.322 0.094-0.125 0.128-0.279 0.106-0.433-0.022-0.159-0.111-0.288-0.244-0.375-0.15-0.099-0.335-0.147-0.506-0.192-0.564-0.15-1.241-0.199-1.711-0.571-0.254-0.201-0.403-0.475-0.44-0.797-0.046-0.396 0.031-0.768 0.283-1.084 0.316-0.396 0.826-0.565 1.312-0.621z"></path>
<path d="M18.47 10.904c-0.369-0.241-0.857-0.283-1.286-0.267-0.465 0.031-1.007 0.138-1.327 0.509-0.171 0.199-0.236 0.438-0.246 0.695l0.96 0.004c0.104-0.21 0.232-0.357 0.464-0.43 0.21-0.066 0.484-0.067 0.68 0.041 0.113 0.062 0.203 0.168 0.24 0.293 0.020 0.068 0.026 0.141 0.032 0.213 0.001 0.011 0.002 0.023 0.003 0.034-0.066 0.073-0.124 0.124-0.215 0.162-0.216 0.091-0.475 0.108-0.722 0.124-0.086 0.006-0.17 0.011-0.25 0.020-0.722 0.076-1.394 0.343-1.341 1.196 0.011 0.172 0.056 0.321 0.129 0.475 0.188 0.3 0.442 0.487 0.789 0.565 0.421 0.094 0.93 0.050 1.3-0.185 0.128-0.081 0.234-0.182 0.337-0.293 0.021 0.148 0.050 0.291 0.087 0.436l0.966-0.002c-0.107-0.51-0.099-1.039-0.091-1.563 0.002-0.141 0.004-0.282 0.004-0.422-0-0.048 0-0.098 0.001-0.147 0.002-0.311 0.005-0.646-0.094-0.934-0.076-0.22-0.224-0.398-0.418-0.524zM17.955 12.714l0.029 0.016c0.042 0.217-0.012 0.504-0.124 0.691-0.122 0.205-0.321 0.359-0.554 0.415-0.214 0.051-0.403 0.023-0.588-0.094-0.077-0.069-0.138-0.142-0.171-0.242-0.037-0.116-0.031-0.255 0.027-0.363 0.13-0.24 0.595-0.302 0.98-0.354 0.156-0.021 0.299-0.040 0.401-0.069z"></path>
<path d="M7.291 16.281h1.034l0.001 1.917c0.047-0.061 0.094-0.122 0.147-0.178 0.262-0.273 0.621-0.395 0.994-0.402 0.387-0.007 0.791 0.093 1.073 0.372 0.178 0.176 0.295 0.408 0.349 0.652 0.077 0.347 0.038 0.741 0.038 1.096l0.001 1.746-1.033 0c-0.008-0.467-0.001-0.937-0.001-1.404-0.001-0.378 0.093-1.071-0.171-1.37-0.121-0.136-0.291-0.193-0.469-0.202-0.241-0.013-0.51 0.018-0.691 0.192-0.112 0.107-0.18 0.254-0.211 0.404-0.063 0.304-0.028 0.656-0.027 0.966l0.001 1.414-1.034 0c-0.011-0.589-0.001-1.18-0.001-1.769l0.001-3.435z"></path>
<path d="M21.989 10.636c0.057-0.004 0.115-0.007 0.173-0.007 0.371-0.002 0.714 0.107 0.981 0.373 0.172 0.174 0.293 0.393 0.347 0.632 0.084 0.358 0.039 0.775 0.039 1.143l0.002 1.719h-1.025l0.001-1.56c0-0.282 0.022-0.588-0.016-0.867-0.016-0.119-0.044-0.236-0.115-0.335-0.102-0.141-0.273-0.226-0.444-0.245-0.28-0.031-0.524 0.012-0.751 0.183-0.113 0.127-0.164 0.235-0.196 0.401-0.053 0.273-0.023 0.589-0.023 0.866l0.003 1.556-1.057 0 0.002-3.775 1.018 0.001c0 0.165 0.002 0.33 0.005 0.495 0.025-0.033 0.050-0.066 0.076-0.098 0.254-0.317 0.588-0.44 0.982-0.483z"></path>
<path d="M28 10.637c0.426-0.026 0.851 0.045 1.22 0.268 0.429 0.26 0.657 0.639 0.776 1.117-0.342-0.004-0.683-0.004-1.025-0.001-0.079-0.187-0.192-0.349-0.363-0.464-0.177-0.119-0.399-0.169-0.609-0.123-0.242 0.054-0.443 0.2-0.575 0.409-0.209 0.332-0.23 0.822-0.135 1.195 0.066 0.263 0.214 0.511 0.455 0.648 0.198 0.112 0.455 0.137 0.672 0.071 0.283-0.087 0.44-0.316 0.567-0.567l0.995-0.001c-0.071 0.281-0.167 0.535-0.352 0.763-0.309 0.38-0.764 0.582-1.245 0.632-0.531 0.055-1.065-0.068-1.482-0.41-0.41-0.337-0.639-0.828-0.684-1.352-0.048-0.549 0.067-1.104 0.428-1.533 0.35-0.415 0.83-0.605 1.359-0.652z"></path>
<path d="M10.306 10.655c0.096-0.006 0.191 0.005 0.286 0.014l-0 0.964-0.153-0.001c-0.34-0.001-0.726 0.021-0.977 0.283-0.115 0.12-0.18 0.269-0.216 0.43-0.062 0.283-0.031 0.608-0.030 0.898l0.002 1.252c-0.304 0.001-0.724 0.037-1.018-0.008-0.030-0.043-0.021-0.085-0.023-0.136l0-3.629 1.020-0.001c0.005 0.175 0.011 0.35 0.019 0.525 0.040-0.065 0.083-0.126 0.132-0.185 0.238-0.283 0.605-0.376 0.958-0.406z"></path>
<path d="M24.484 10.722l1.052 0.001-0.001 2.5c0 0.422 0.024 0.854-0.005 1.274l-1.049 0c0.017-0.49 0.007-0.982 0.007-1.473l-0.004-2.302z"></path>
<path d="M24.458 9.254l1.166-0.001c-0.003 0.291-0.002 0.582 0.001 0.873l-1.167 0v-0.873z"></path>
</symbol>
<symbol id="icon-menu" viewBox="0 0 32 32">
<path d="M5.333 8h21.333v2.667h-21.333v-2.667zM5.333 14.667h21.333v2.667h-21.333v-2.667zM5.333 21.333h21.333v2.667h-21.333v-2.667z"></path>
</symbol>
<symbol id="icon-close" viewBox="0 0 32 32">
<path d="M21.589 8.459l-5.657 5.656-5.656-5.656-1.885 1.885 5.656 5.656-5.656 5.656 1.885 1.885 5.656-5.656 5.657 5.656 1.885-1.885-5.656-5.656 5.656-5.656-1.885-1.885z"></path>
</symbol>
<symbol id="icon-health" viewBox="0 0 32 32">
<path d="M26.198 7.048l-7.532 4.349v-8.697h-5.333v8.697l-7.532-4.349-2.667 4.62 7.531 4.348-7.531 4.348 2.667 4.62 7.532-4.348v8.697h5.333v-8.697l7.532 4.348 2.667-4.62-7.531-4.348 7.531-4.348-2.667-4.62z"></path>
</symbol>
<symbol id="icon-basketball" viewBox="0 0 32 32">
<path d="M6.572 25.428c2.527 2.527 5.873 3.917 9.428 3.917s6.903-1.391 9.428-3.917c5.199-5.199 5.199-13.657 0-18.857-2.525-2.525-5.875-3.917-9.428-3.917s-6.903 1.392-9.428 3.919c-5.199 5.197-5.199 13.657 0 18.856zM16.412 5.342c2.227 0.080 4.371 0.863 6.125 2.237l-6.537 6.536-1.947-1.947c1.548-1.972 2.389-4.411 2.359-6.827zM12.147 10.262l-2.683-2.683c1.259-0.987 2.726-1.676 4.291-2.013-0.020 1.648-0.593 3.303-1.608 4.696zM10.248 12.134c-1.358 0.928-2.967 1.42-4.612 1.409 0.346-1.483 1.010-2.874 1.944-4.077l2.668 2.668zM5.348 16.195c0.103 0.003 0.205 0.019 0.308 0.019 2.346 0.007 4.63-0.754 6.503-2.168l1.956 1.955-6.535 6.535c-1.41-1.816-2.193-4.041-2.232-6.34zM21.74 19.855c1.389-1.011 3.040-1.584 4.677-1.608-0.333 1.562-1.016 3.028-1.996 4.289l-2.681-2.681zM22.536 24.422c-1.202 0.94-2.594 1.609-4.079 1.96-0.015-1.651 0.477-3.267 1.409-4.629l2.669 2.669zM15.811 26.67c-2.305-0.037-4.534-0.826-6.348-2.248l6.537-6.536 1.951 1.951c-1.471 1.925-2.212 4.355-2.14 6.833zM26.643 15.59c-2.409-0.024-4.844 0.813-6.811 2.357l-1.947-1.947 6.535-6.535c1.364 1.758 2.141 3.9 2.223 6.124z"></path>
</symbol>
<symbol id="icon-restaurant" viewBox="0 0 32 32">
<path d="M16 13.333h-2.667v-9.333h-2.667v9.333h-2.667v-9.333h-2.667v10.667c0 2.205 1.795 4 4 4h1.333v9.333h2.667v-9.333h1.333c2.205 0 4-1.795 4-4v-10.667h-2.667v9.333zM25.333 4h-1.333c-1.545 0-2.667 1.683-2.667 4v10.667h2.667v9.333h2.667v-22.667c0-0.354-0.141-0.693-0.391-0.943s-0.589-0.391-0.943-0.391z"></path>
</symbol>
<symbol id="icon-cheese" viewBox="0 0 32 32">
<path d="M20.213 2.667c-0.305-0.046-0.615 0.016-0.88 0.173l-16 9.333c-0.063 0.037-0.122 0.082-0.173 0.133l-0.133 0.107c-0.091 0.105-0.167 0.222-0.227 0.347-0.095 0.176-0.141 0.374-0.133 0.573v13.333c0 0.354 0.14 0.693 0.391 0.943s0.589 0.391 0.943 0.391h24c0.354 0 0.693-0.141 0.943-0.391s0.391-0.589 0.391-0.943v-13.333c0.005-2.574-0.912-5.065-2.585-7.022s-3.991-3.25-6.535-3.645zM20.213 5.4c1.603 0.328 3.069 1.135 4.204 2.313s1.887 2.673 2.156 4.287h-17.64l11.28-6.6zM26.666 25.334h-21.333v-10.667h21.333v10.667z"></path>
<path d="M8.666 24c1.105 0 2-0.895 2-2s-0.895-2-2-2-2 0.895-2 2c0 1.105 0.895 2 2 2z"></path>
<path d="M15.333 20c1.105 0 2-0.895 2-2s-0.895-2-2-2c-1.105 0-2 0.895-2 2s0.895 2 2 2z"></path>
<path d="M22.666 24c1.473 0 2.667-1.194 2.667-2.667s-1.194-2.667-2.667-2.667c-1.473 0-2.667 1.194-2.667 2.667s1.194 2.667 2.667 2.667z"></path>
</symbol>
<symbol id="icon-star" viewBox="0 0 32 32">
<path d="M8.688 19.097l-1.987 8.603c-0.062 0.261-0.043 0.533 0.053 0.783s0.265 0.465 0.485 0.617c0.22 0.152 0.481 0.235 0.749 0.236s0.53-0.078 0.752-0.227l7.26-4.84 7.26 4.84c0.227 0.151 0.495 0.228 0.768 0.222s0.537-0.095 0.757-0.256c0.22-0.161 0.386-0.385 0.475-0.642s0.097-0.536 0.023-0.799l-2.439-8.533 6.048-5.443c0.194-0.174 0.332-0.402 0.398-0.654s0.056-0.518-0.027-0.765-0.238-0.464-0.444-0.624c-0.206-0.16-0.454-0.256-0.714-0.277l-7.601-0.605-3.289-7.281c-0.105-0.234-0.275-0.434-0.491-0.573s-0.467-0.214-0.724-0.214c-0.257 0-0.508 0.074-0.724 0.214s-0.386 0.339-0.491 0.573l-3.289 7.281-7.601 0.604c-0.255 0.020-0.5 0.114-0.703 0.269s-0.358 0.366-0.445 0.607c-0.087 0.241-0.103 0.502-0.046 0.752s0.185 0.478 0.369 0.656l5.619 5.476zM12.492 13.329c0.238-0.019 0.467-0.101 0.662-0.239s0.35-0.325 0.448-0.543l2.399-5.308 2.399 5.308c0.098 0.218 0.252 0.405 0.448 0.543s0.424 0.22 0.662 0.239l5.296 0.42-4.361 3.925c-0.379 0.341-0.529 0.867-0.391 1.357l1.671 5.847-4.981-3.321c-0.219-0.147-0.476-0.225-0.739-0.225s-0.521 0.078-0.739 0.225l-5.205 3.471 1.4-6.061c0.051-0.223 0.044-0.455-0.020-0.675s-0.184-0.419-0.348-0.579l-4.051-3.949 5.453-0.435z"></path>
</symbol>
<symbol id="icon-chevron-down" viewBox="0 0 32 32">
<path d="M21.724 11.057l-5.724 5.724-5.724-5.724-1.885 1.885 7.609 7.609 7.609-7.609-1.885-1.885z"></path>
</symbol>
<symbol id="icon-chevron-left" viewBox="0 0 32 32">
<path d="M17.724 8.391l-7.609 7.609 7.609 7.609 1.885-1.885-5.724-5.724 5.724-5.724-1.885-1.885z"></path>
</symbol>
<symbol id="icon-chevron-right" viewBox="0 0 32 32">
<path d="M12.943 22.599l7.609-7.609-7.609-7.609-1.885 1.885 5.724 5.724-5.724 5.724 1.885 1.885z"></path>
</symbol>
<symbol id="icon-chevron-up" viewBox="0 0 32 32">
<path d="M8.391 19.057l1.885 1.885 5.724-5.724 5.724 5.724 1.885-1.885-7.609-7.609-7.609 7.609z"></path>
</symbol>
<symbol id="icon-facebook" viewBox="0 0 32 32">
<path d="M29.333 16.405c0-7.409-5.969-13.415-13.333-13.415s-13.333 6.006-13.333 13.415c0 6.696 4.876 12.245 11.25 13.252v-9.374h-3.385v-3.878h3.385v-2.955c0-3.362 1.991-5.219 5.036-5.219 1.459 0 2.985 0.262 2.985 0.262v3.301h-1.681c-1.656 0-2.173 1.034-2.173 2.095v2.516h3.698l-0.591 3.878h-3.107v9.374c6.374-1.006 11.25-6.556 11.25-13.252z"></path>
</symbol>
<symbol id="icon-instagram" viewBox="0 0 32 32">
<path d="M15.998 6.161c3.206 0 3.585 0.014 4.846 0.071 1.172 0.052 1.804 0.248 2.226 0.412 0.558 0.216 0.961 0.478 1.378 0.895 0.422 0.422 0.679 0.82 0.9 1.378 0.164 0.422 0.361 1.059 0.412 2.226 0.056 1.266 0.071 1.645 0.071 4.847s-0.014 3.585-0.071 4.847c-0.052 1.172-0.248 1.804-0.412 2.227-0.216 0.558-0.478 0.961-0.895 1.377-0.422 0.422-0.82 0.679-1.378 0.9-0.422 0.164-1.060 0.361-2.226 0.412-1.266 0.056-1.645 0.071-4.847 0.071s-3.585-0.014-4.847-0.071c-1.172-0.052-1.804-0.248-2.226-0.412-0.558-0.216-0.961-0.478-1.378-0.895-0.422-0.422-0.679-0.82-0.9-1.378-0.164-0.422-0.361-1.060-0.412-2.226-0.056-1.266-0.071-1.645-0.071-4.847s0.014-3.585 0.071-4.847c0.052-1.172 0.248-1.804 0.412-2.226 0.216-0.558 0.478-0.961 0.895-1.378 0.422-0.422 0.82-0.679 1.378-0.9 0.422-0.164 1.059-0.361 2.226-0.412 1.261-0.056 1.641-0.071 4.847-0.071h0.001zM15.998 4.001c-3.258 0-3.665 0.014-4.945 0.071-1.275 0.056-2.151 0.262-2.91 0.558-0.792 0.309-1.462 0.717-2.127 1.387-0.67 0.666-1.078 1.336-1.387 2.123-0.295 0.764-0.502 1.636-0.558 2.91-0.056 1.285-0.071 1.692-0.071 4.949s0.014 3.665 0.071 4.945c0.056 1.275 0.262 2.151 0.558 2.91 0.31 0.792 0.717 1.462 1.387 2.127 0.665 0.665 1.336 1.078 2.123 1.383 0.764 0.295 1.636 0.502 2.91 0.558 1.279 0.056 1.687 0.071 4.945 0.071s3.666-0.014 4.945-0.071c1.275-0.056 2.151-0.262 2.91-0.558 0.787-0.305 1.458-0.717 2.123-1.383s1.078-1.336 1.383-2.123c0.295-0.764 0.502-1.635 0.558-2.91 0.056-1.279 0.071-1.687 0.071-4.945s-0.014-3.665-0.071-4.945c-0.056-1.275-0.262-2.151-0.558-2.91-0.295-0.797-0.703-1.467-1.373-2.133-0.665-0.665-1.336-1.078-2.123-1.383-0.764-0.295-1.635-0.502-2.91-0.558-1.284-0.061-1.692-0.075-4.949-0.075l-0.001 0.001z"></path>
<path d="M15.998 9.836c-3.402 0-6.163 2.76-6.163 6.163s2.76 6.163 6.163 6.163c3.403 0 6.163-2.76 6.163-6.163s-2.76-6.163-6.163-6.163zM15.998 19.997c-2.208 0-3.998-1.79-3.998-3.998s1.79-3.998 3.998-3.998c2.208 0 3.998 1.79 3.998 3.998s-1.79 3.998-3.998 3.998z"></path>
<path d="M23.843 9.592c0 0.795-0.644 1.439-1.439 1.439s-1.439-0.644-1.439-1.439 0.644-1.439 1.439-1.439c0.795 0 1.439 0.644 1.439 1.439z"></path>
</symbol>
<symbol id="icon-x" viewBox="0 0 32 32">
<path d="M22.901 5.656h3.68l-8.040 9.037 9.459 12.297h-7.406l-5.801-7.458-6.637 7.458h-3.682l8.6-9.666-9.074-11.668h7.594l5.243 6.817 6.064-6.817zM21.61 24.823h2.039l-13.163-17.115h-2.188l13.312 17.115z"></path>
</symbol>
<symbol id="icon-linkedIn" viewBox="0 0 32 32">
<path d="M25.75 4h-19.5c-1.237 0-2.25 1.013-2.25 2.25v19.5c0 1.237 1.013 2.25 2.25 2.25h19.5c1.237 0 2.25-1.013 2.25-2.25v-19.5c0-1.237-1.013-2.25-2.25-2.25zM13 23.5h-3v-10.5h3v10.5zM11.5 11.5c-0.829 0-1.5-0.671-1.5-1.5s0.671-1.5 1.5-1.5c0.829 0 1.5 0.671 1.5 1.5s-0.671 1.5-1.5 1.5zM23.5 23.5h-3v-6c0-0.829-0.671-1.5-1.5-1.5s-1.5 0.671-1.5 1.5v6h-3v-10.5h3v1.861c0.619-0.848 1.565-1.861 2.625-1.861 1.866 0 3.375 1.679 3.375 3.75v6.75z"></path>
</symbol>
<symbol id="icon-youtube" viewBox="0 0 32 32">
<path d="M28.791 9.604c-0.152-0.563-0.449-1.077-0.861-1.49s-0.925-0.711-1.489-0.864c-2.088-0.573-10.441-0.583-10.441-0.583s-8.352-0.009-10.441 0.539c-0.563 0.16-1.075 0.462-1.487 0.878s-0.711 0.929-0.867 1.493c-0.551 2.088-0.556 6.419-0.556 6.419s-0.005 4.352 0.541 6.419c0.307 1.143 1.207 2.045 2.351 2.353 2.109 0.573 10.44 0.583 10.44 0.583s8.353 0.009 10.441-0.537c0.563-0.153 1.077-0.45 1.49-0.862s0.712-0.925 0.866-1.488c0.552-2.087 0.556-6.416 0.556-6.416s0.027-4.353-0.543-6.441zM13.328 20.007l0.007-8 6.943 4.007-6.949 3.993z"></path>
</symbol>
<symbol id="icon-icon-google" viewBox="0 0 32 32">
<path d="M28 15.72c0 5.533-2.947 12.28-11.827 12.28-6.674 0.044-12.122-5.326-12.173-12 0.051-6.674 5.499-12.044 12.173-12 2.761 0.010 5.438 0.95 7.6 2.667 0.149 0.122 0.241 0.301 0.253 0.493 0.001 0.195-0.076 0.382-0.213 0.52-0.868 0.794-1.696 1.63-2.48 2.507-0.228 0.251-0.61 0.286-0.88 0.080-1.232-0.912-2.735-1.381-4.267-1.333-3.94 0-7.133 3.194-7.133 7.133s3.194 7.133 7.133 7.133c4 0 5.693-1.707 6.573-4.733h-6.093c-0.368 0-0.667-0.299-0.667-0.667v-3.533c0-0.368 0.299-0.667 0.667-0.667h10.667c0.307-0.002 0.566 0.228 0.6 0.533 0.049 0.527 0.072 1.057 0.067 1.587z"></path>
</symbol>
</defs>
</svg>